<?xml version="1.0" standalone="no"?>
<!DOCTYPE svg PUBLIC "-//W3C//DTD SVG 20010904//EN"
 "http://www.w3.org/TR/2001/REC-SVG-20010904/DTD/svg10.dtd">
<svg version="1.0" xmlns="http://www.w3.org/2000/svg"
 width="512.000000pt" height="512.000000pt" viewBox="0 0 512.000000 512.000000"
 preserveAspectRatio="xMidYMid meet">

<g transform="translate(0.000000,512.000000) scale(0.100000,-0.100000)"
fill="#FFBC5E" stroke="none">
<path d="M552 4850 c-201 -53 -386 -205 -477 -393 -54 -114 -69 -185 -69 -322
0 -142 15 -211 76 -335 34 -70 59 -102 137 -181 79 -79 111 -103 181 -137 99
-49 220 -82 299 -82 l56 0 541 -542 c533 -535 542 -544 554 -596 7 -29 32 -90
55 -137 l44 -85 -60 -397 c-58 -385 -61 -399 -88 -428 -121 -130 -354 -401
-361 -421 -6 -14 -10 -77 -10 -140 l0 -114 -141 0 c-159 0 -198 -12 -234 -73
-38 -64 -14 -159 48 -197 31 -20 61 -20 1457 -20 1396 0 1426 0 1457 20 65 39
86 135 45 203 -36 57 -70 67 -231 67 l-141 0 0 114 c0 63 -4 126 -10 140 -7
20 -240 291 -361 421 -27 29 -30 43 -88 428 l-60 397 43 84 c120 234 111 492
-25 724 -19 31 -70 93 -114 137 -133 133 -290 201 -487 212 l-106 6 -193 193
-194 194 893 0 893 0 29 -22 30 -22 0 -296 0 -295 -140 -160 c-89 -102 -144
-173 -150 -195 -5 -19 -10 -130 -10 -246 0 -200 1 -213 23 -254 56 -107 200
-106 255 0 20 41 22 57 22 225 l0 180 132 152 133 153 176 0 176 0 131 -149
130 -148 4 -196 c3 -217 6 -225 79 -275 65 -45 163 -16 201 59 16 29 18 65 18
262 0 192 -3 233 -17 260 -9 18 -62 84 -117 147 -56 63 -116 132 -134 153
l-32 38 0 287 0 288 70 69 c39 39 89 97 110 131 171 262 155 612 -40 855 -146
181 -347 279 -575 279 -167 0 -300 -42 -432 -137 l-74 -53 -1319 0 -1320 0
-52 40 c-73 56 -178 106 -272 130 -105 26 -263 26 -364 0z m268 -280 c116 -22
238 -108 297 -208 107 -183 74 -408 -82 -550 -237 -217 -614 -120 -715 184
-19 55 -22 82 -18 162 3 84 8 106 37 165 88 183 285 284 481 247z m3641 0
c138 -26 259 -120 320 -247 29 -59 34 -81 37 -165 4 -79 1 -107 -17 -161 -84
-251 -369 -373 -608 -260 -69 32 -162 118 -195 180 -69 127 -76 276 -19 398
87 188 285 292 482 255z m-781 -196 c0 -3 -7 -34 -16 -68 -22 -81 -22 -250 -1
-339 10 -38 17 -70 17 -73 0 -2 -424 -4 -943 -4 l-942 0 -161 163 c-159 161
-161 162 -172 222 -7 33 -15 70 -18 83 l-6 22 1121 0 c616 0 1121 -3 1121 -6z
m-1510 -1279 c0 -6 -13 -18 -29 -28 -87 -51 -194 -178 -249 -294 l-29 -61
-386 386 -387 387 46 29 c101 64 207 183 264 295 l22 44 374 -374 c206 -206
374 -379 374 -384z m2360 158 l0 -153 -150 0 -150 0 0 153 0 152 150 0 150 0
0 -152z m-1778 -395 c92 -46 167 -122 211 -215 30 -64 32 -75 32 -178 0 -90
-4 -120 -23 -165 -44 -111 -142 -208 -252 -252 -44 -18 -75 -22 -160 -22 -85
0 -116 4 -160 22 -110 44 -208 141 -252 252 -18 45 -22 75 -23 165 0 103 2
114 32 177 53 114 146 197 268 241 38 13 74 17 151 15 93 -3 106 -6 176 -40z
m-361 -1115 c133 -35 312 -19 460 41 33 13 59 20 59 15 0 -13 59 -409 66 -441
l6 -28 -422 0 -422 0 6 28 c7 32 66 428 66 441 0 5 26 -2 59 -15 32 -13 87
-31 122 -41z m853 -888 l156 -176 0 -69 0 -70 -840 0 -840 0 0 70 0 69 156
176 156 175 528 0 528 0 156 -175z"/>
<path d="M659 4257 c-153 -102 -20 -330 147 -251 70 33 99 134 58 204 -40 68
-140 91 -205 47z"/>
<path d="M4310 4261 c-71 -37 -95 -133 -52 -204 59 -94 204 -87 254 13 65 128
-75 259 -202 191z"/>
<path d="M2493 2589 c-53 -26 -88 -91 -79 -147 18 -111 144 -164 231 -98 38
29 65 78 65 118 0 46 -39 106 -84 127 -53 26 -80 26 -133 0z"/>
</g>
</svg>
