<?xml version="1.0" standalone="no"?>
<!DOCTYPE svg PUBLIC "-//W3C//DTD SVG 20010904//EN"
 "http://www.w3.org/TR/2001/REC-SVG-20010904/DTD/svg10.dtd">
<svg version="1.0" xmlns="http://www.w3.org/2000/svg"
 width="368.000000pt" height="372.000000pt" viewBox="0 0 368.000000 372.000000"
 preserveAspectRatio="xMidYMid meet">

<g transform="translate(0.000000,372.000000) scale(0.100000,-0.100000)"
fill="#FFBC5E" stroke="none">
<path d="M1639 3693 c-97 -50 -148 -151 -129 -255 l9 -47 -171 -301 c-122
-216 -178 -305 -197 -315 -100 -52 -138 -178 -86 -281 19 -38 25 -64 25 -116
l0 -68 -42 0 c-41 -1 -49 -7 -203 -152 -88 -83 -162 -155 -164 -160 -3 -9 186
-264 213 -287 13 -11 21 -9 49 12 l33 25 16 -28 c25 -44 74 -52 286 -48 l184
3 34 39 33 38 27 -21 c15 -12 32 -21 38 -21 9 0 191 237 219 287 5 7 -56 69
-159 162 -159 146 -167 151 -208 151 -41 0 -44 2 -50 31 -11 57 -6 88 19 125
31 45 49 108 41 145 -4 23 25 82 160 321 91 161 171 298 177 305 7 6 28 18 48
26 l36 15 623 -267 622 -267 28 -61 28 -61 -198 -668 -197 -667 -45 -23 c-120
-61 -191 -162 -223 -316 -5 -28 -6 -28 -85 -28 -74 0 -82 -2 -112 -29 l-33
-29 -5 -359 -5 -358 -50 -3 c-27 -2 -55 -8 -62 -14 -16 -13 -17 -100 -1 -116
9 -9 189 -12 749 -12 819 0 769 -4 769 66 0 61 -13 74 -75 74 l-55 0 0 345 c0
434 3 426 -149 435 l-86 5 -7 45 c-10 58 -24 94 -61 153 l-29 47 152 683 152
682 50 44 c153 135 125 366 -54 455 -61 30 -156 35 -215 11 -19 -8 -41 -15
-48 -15 -12 0 -291 115 -1033 427 -244 103 -254 108 -273 144 -53 106 -198
148 -310 92z m191 -35 c70 -36 103 -86 108 -162 6 -95 -36 -165 -120 -201
-108 -44 -234 20 -264 134 -42 165 127 305 276 229z m787 -410 l603 -252 -25
-26 c-32 -34 -65 -107 -65 -147 0 -18 -3 -33 -8 -33 -4 0 -277 116 -608 258
l-600 257 30 48 c20 33 31 65 34 103 4 46 7 54 21 49 9 -3 287 -119 618 -257z
m-994 28 c23 -14 59 -28 80 -31 21 -4 37 -11 35 -16 -2 -4 -70 -127 -153 -273
l-150 -266 -25 29 c-35 40 -73 62 -130 75 l-48 11 155 273 155 273 20 -26 c10
-14 38 -36 61 -49z m1865 -272 c180 -74 191 -333 19 -419 -117 -58 -256 -15
-312 98 -77 156 31 336 203 337 29 0 69 -7 90 -16z m-2172 -263 c111 -51 133
-184 45 -272 -104 -104 -281 -27 -281 122 0 60 38 121 92 148 53 26 90 26 144
2z m2003 -212 c21 -6 65 -9 99 -7 59 3 63 2 58 -17 -3 -11 -69 -306 -147 -655
-78 -349 -143 -637 -145 -639 -2 -2 -25 10 -51 27 -71 45 -133 62 -224 62 -72
0 -80 2 -75 18 3 9 82 278 176 597 94 319 178 601 186 627 l15 47 36 -25 c20
-13 52 -29 72 -35z m-2117 -142 c27 -8 53 -8 90 0 60 12 68 7 68 -44 l0 -33
-115 0 -115 0 0 51 c0 45 2 50 18 44 9 -4 34 -13 54 -18z m258 -192 l0 -75
-215 0 -215 0 0 75 0 75 215 0 215 0 0 -75z m195 -90 c61 -55 111 -100 113
-101 5 -3 -172 -243 -179 -244 -3 0 -13 6 -23 13 -17 12 -14 19 43 99 33 47
61 88 61 90 0 3 -38 38 -85 79 l-85 74 0 64 0 64 23 -19 c12 -11 72 -65 132
-119z m-665 63 l0 -63 -80 -70 c-43 -38 -79 -75 -80 -81 0 -6 27 -46 59 -90
55 -73 58 -80 44 -96 -21 -23 -24 -20 -124 114 l-82 109 34 33 c142 136 218
206 223 206 3 0 6 -28 6 -62z m554 -144 l76 -66 -52 -74 -52 -74 -26 25 -26
25 -218 0 -217 0 -24 -25 -25 -24 -50 66 c-28 36 -50 69 -50 72 0 3 30 33 67
66 l67 60 221 5 c121 3 223 7 227 8 4 1 41 -28 82 -64z m1503 -786 c81 -30
171 -121 202 -203 31 -83 27 -206 -10 -285 -51 -108 -169 -192 -289 -206 -116
-13 -255 48 -325 144 -77 104 -92 244 -40 360 35 78 121 161 197 191 74 28
188 28 265 -1z m-533 -375 c2 -10 8 -34 11 -53 20 -99 112 -214 211 -264 113
-56 230 -57 350 -2 110 50 205 175 220 287 l7 49 75 0 c64 0 79 -3 99 -22 l23
-21 0 -349 0 -348 -595 0 -595 0 0 350 c0 415 -7 390 114 390 63 0 75 -3 80
-17z m1126 -793 l0 -30 -725 0 -725 0 0 30 0 30 725 0 725 0 0 -30z"/>
<path d="M1710 3547 c-54 -27 -51 -110 5 -133 88 -36 149 87 65 131 -35 18
-38 18 -70 2z"/>
<path d="M3364 2881 c-32 -14 -64 -60 -64 -93 0 -21 11 -41 34 -64 47 -47 86
-46 133 1 31 31 35 40 30 72 -11 65 -78 107 -133 84z"/>
<path d="M1212 2634 c-43 -30 -17 -104 36 -104 28 0 62 34 62 60 0 25 -34 60
-58 60 -10 0 -28 -7 -40 -16z"/>
<path d="M2831 1053 c-43 -21 -79 -77 -87 -133 -4 -35 0 -55 18 -90 56 -108
187 -130 272 -46 105 105 30 286 -118 286 -28 0 -66 -8 -85 -17z"/>
<path d="M1240 1190 c-19 -19 -20 -33 -20 -260 l0 -240 -112 0 c-132 0 -179
-11 -208 -47 -27 -35 -27 -101 1 -137 l20 -26 -53 0 c-96 -1 -146 -77 -104
-159 15 -27 14 -27 -28 -39 -52 -13 -92 -52 -107 -103 -16 -51 9 -119 54 -151
l32 -23 548 -3 c543 -2 549 -2 586 19 51 28 71 65 71 129 0 47 -4 56 -38 91
-28 27 -51 40 -81 45 -39 6 -41 8 -25 25 8 9 18 36 21 58 5 36 2 44 -30 76
-31 31 -41 35 -86 35 l-51 0 20 33 c34 55 22 120 -29 154 -21 14 -53 19 -158
21 l-132 4 -3 245 c-3 229 -4 246 -22 259 -27 19 -42 18 -66 -6z m371 -569
c27 -34 24 -75 -7 -100 -26 -20 -38 -21 -329 -21 -291 0 -303 1 -329 21 -36
29 -36 80 1 109 26 20 34 21 336 18 l309 -3 19 -24z m219 -386 c36 -18 52 -47
52 -90 0 -43 -16 -72 -52 -90 -25 -13 -106 -15 -564 -15 l-534 0 -31 26 c-56
47 -48 133 17 168 41 23 1069 23 1112 1z"/>
<path d="M152 413 c-20 -18 -152 -319 -152 -348 0 -9 11 -27 25 -40 23 -24 28
-25 170 -25 142 0 147 1 170 25 14 13 25 31 25 39 0 28 -132 331 -152 349 -11
9 -30 17 -43 17 -13 0 -32 -8 -43 -17z m65 -35 c23 -30 132 -308 127 -322 -9
-23 -292 -24 -300 -2 -5 14 107 296 129 324 5 6 15 12 22 12 7 0 17 -6 22 -12z"/>
</g>
</svg>
